# xmcd
#
# Track frame offsets: 
#        150
#        13799
#        24795
#        40565
#        58880
#        76052
#        90496
#        103907
#        119181
#        133873
#        143830
#        157492
#        170512
#        184685
#        198419
#        214752
#        229725
#        240182
#        254881
#        269439
#        283323
#        295092
#        307961
#        321803
#        334340
#
# Disc length: 4678 seconds
#
# Revision: 1
# Processed by: cddbd v1.5.2PL0 Copyright (c) Steve Scherf et al.
# Submitted via: ExactAudioCopyFreeDBPlugin 1.0
#
DISCID=79124419
DTITLE=C.S. Lewis - Mere Christianity
DYEAR=2006
DGENRE=Audio Book
TTITLE0=Book 3 Chapter 12c
TTITLE1=Book 3 Chapter 12d
TTITLE2=Book 4 Chapter 1a
TTITLE3=Book 4 Chapter 1b
TTITLE4=Book 4 Chapter 1c
TTITLE5=Book 4 Chapter 2a
TTITLE6=Book 4 Chapter 2b
TTITLE7=Book 4 Chapter 2c
TTITLE8=Book 4 Chapter 3a
TTITLE9=Book 4 Chapter 3b
TTITLE10=Book 4 Chapter 3c
TTITLE11=Book 4 Chapter 4a
TTITLE12=Book 4 Chapter 4b
TTITLE13=Book 4 Chapter 4c
TTITLE14=Book 4 Chapter 5a
TTITLE15=Book 4 Chapter 5b
TTITLE16=Book 4 Chapter 6a
TTITLE17=Book 4 Chapter 6b
TTITLE18=Book 4 Chapter 7a
TTITLE19=Book 4 Chapter 7b
TTITLE20=Book 4 Chapter 7c
TTITLE21=Book 4 Chapter 7d
TTITLE22=Book 4 Chapter 8a
TTITLE23=Book 4 Chapter 8b
TTITLE24=Book 4 Chapter 8c
EXTD=
EXTT0=
EXTT1=
EXTT2=
EXTT3=
EXTT4=
EXTT5=
EXTT6=
EXTT7=
EXTT8=
EXTT9=
EXTT10=
EXTT11=
EXTT12=
EXTT13=
EXTT14=
EXTT15=
EXTT16=
EXTT17=
EXTT18=
EXTT19=
EXTT20=
EXTT21=
EXTT22=
EXTT23=
EXTT24=
PLAYORDER=
